M48
INCH,TZ
T1C0.0118
T2C0.0236
T3C0.0394
T4C0.0689
%
G90
G05
T1
X-39Y-43661
X325Y-40649
X965Y-40649
X1693Y-40649
X2077Y-70856
X2421Y-40649
X2539Y-51535
X2736Y-51338
X2756Y-46732
X2756Y-47263
X2933Y-51141
X2992Y-51988
X3130Y-50944
X3189Y-51788
X3386Y-51594
X3425Y-39301
X3425Y-41151
X3425Y-42224
X3425Y-43661
X3425Y-46998
X3583Y-51397
X5167Y-72992
X5610Y-45492
X6083Y-37637
X6447Y-55738
X6644Y-55068
X6683Y-37647
X6841Y-41712
X6841Y-54872
X7037Y-42027
X7037Y-55068
X7175Y-45064
X7175Y-45669
X7234Y-42342
X7234Y-54872
X7431Y-55068
X7431Y-56417
X7446Y-42598
X7628Y-54872
X7628Y-56614
X7825Y-55068
X7825Y-56417
X7864Y-60255
X8022Y-55738
X8061Y-58484
X8061Y-60059
X8061Y-60452
X8061Y-64980
X8061Y-65374
X8071Y-42598
X8085Y-41510
X8642Y-56535
X8691Y-66663
X8701Y-68179
X8740Y-49980
X8770Y-43248
X8937Y-50748
X8957Y-55059
X9055Y-67185
X9134Y-50944
X9154Y-56220
X9172Y-38436
X9173Y-39149
X9291Y-68179
X9331Y-50748
X9350Y-56023
X9528Y-59734
X9537Y-49980
X9547Y-56220
X9675Y-39149
X9724Y-43637
X9724Y-44031
X9724Y-59931
X9744Y-50748
X9744Y-55059
X9823Y-42594
X9823Y-44891
X9823Y-45629
X9823Y-45944
X9921Y-60127
X9941Y-68238
X9941Y-51141
X10020Y-45206
X10118Y-60324
X10138Y-42594
X10138Y-45944
X10138Y-50944
X10177Y-39149
X10217Y-44576
X10354Y-49980
X10384Y-65403
X10433Y-55059
X10433Y-55669
X10453Y-45940
X10581Y-65216
X10591Y-67185
X10591Y-68238
X10600Y-41053
X10630Y-35482
X10630Y-54192
X10630Y-55866
X10768Y-43539
X10768Y-45940
X10827Y-54389
X10827Y-55669
X11004Y-49980
X11004Y-51318
X11009Y-51648
X11024Y-54192
X11024Y-55866
X11083Y-45940
X11161Y-58444
X11161Y-63661
X11171Y-39149
X11220Y-35482
X11220Y-55059
X11220Y-55669
X11398Y-45940
X11431Y-41053
X11545Y-51318
X11673Y-39149
X11693Y-58444
X11693Y-63661
X11713Y-43539
X11742Y-44271
X11939Y-43952
X12087Y-58622
X12136Y-43641
X12274Y-50767
X12421Y-40763
X12421Y-42450
X12480Y-58444
X12549Y-50767
X12608Y-55964
X12608Y-56653
X12776Y-56998
X13002Y-69842
X13199Y-43027
X13199Y-43539
X13228Y-63661
X13366Y-56998
X13553Y-50767
X13553Y-54665
X13553Y-55423
X13661Y-58444
X13898Y-59271
X13898Y-59665
X13898Y-60059
X13898Y-60452
X13898Y-60846
X14016Y-65403
X14094Y-59074
X14094Y-59468
X14094Y-59862
X14094Y-60255
X14094Y-60649
X14094Y-61043
X14094Y-61437
X14094Y-61830
X14213Y-47791
X14350Y-69842
X14498Y-43543
X14587Y-45846
X14587Y-46200
X14779Y-44896
X14961Y-69832
X15344Y-66210
X15344Y-66673
X15354Y-69832
X15472Y-63602
X15561Y-46200
X15571Y-58484
X15571Y-58877
X15591Y-65570
X15669Y-63405
X15768Y-58681
X15866Y-37342
X15866Y-38316
X15866Y-38956
X15866Y-39832
X15866Y-63208
X15965Y-69832
X16004Y-57598
X16004Y-58484
X16063Y-63011
X16102Y-60196
X16260Y-62814
X16358Y-69832
X16457Y-62618
X16654Y-62421
X16850Y-62224
X16949Y-56269
X16949Y-57322
X16969Y-69832
X16988Y-40039
X16988Y-41033
X16988Y-42037
X16988Y-43041
X16988Y-44035
X16988Y-45039
X17047Y-62027
X17244Y-61830
X17362Y-69832
X17662Y-69537
X17687Y-66673
X18159Y-69537
X18219Y-66870
X18455Y-68228
X18661Y-55285
X18662Y-69537
X18740Y-65620
X18917Y-60078
X19104Y-65984
X19114Y-60275
X19163Y-69537
X19311Y-60078
X19365Y-56550
X19508Y-60275
X19662Y-69537
X19705Y-60078
X19715Y-66978
X19902Y-60275
X20098Y-60078
X20167Y-69537
X20295Y-60275
X20492Y-60078
X20662Y-69537
X20689Y-57322
X20728Y-68700
X20994Y-69537
X21142Y-55285
X21329Y-69537
X21662Y-69537
T3
X906Y-34952
X906Y-35740
X1693Y-34952
X1693Y-35740
X2461Y-52775
X2480Y-34952
X2480Y-35740
X3051Y-53956
X3051Y-55137
X3051Y-56318
X3051Y-57500
X3051Y-58681
X3051Y-59862
X3051Y-61043
X3051Y-62224
X3051Y-63405
X3051Y-64586
X3051Y-65767
X3051Y-66948
X3051Y-68129
X3051Y-69311
X3051Y-70492
X3406Y-71811
X3406Y-72598
X3406Y-73385
X3406Y-74173
X3642Y-53366
X3642Y-54547
X3642Y-55728
X3642Y-56909
X3642Y-58090
X3642Y-59271
X3642Y-60452
X3642Y-61633
X3642Y-62814
X3642Y-63996
X3642Y-65177
X3642Y-66358
X3642Y-67539
X3642Y-68720
X3642Y-69901
X3642Y-71082
X5049Y-52427
X5049Y-71427
X6049Y-52427
X6049Y-71427
X7049Y-52427
X7049Y-71427
X8049Y-52427
X8049Y-71427
X9049Y-52427
X9049Y-71427
X10049Y-52427
X10049Y-71427
X11049Y-71427
X12049Y-52427
X12049Y-71427
X13049Y-52427
X13646Y-71427
X13662Y-70230
X13921Y-40535
X13921Y-41535
X13921Y-42535
X14049Y-52427
X14646Y-71427
X14662Y-70230
X14921Y-40535
X14921Y-41535
X14921Y-42537
X15049Y-52427
X15646Y-71427
X15662Y-70230
X16049Y-52427
X16646Y-34537
X16646Y-35537
X16646Y-36537
X16646Y-37537
X16646Y-38537
X16646Y-39537
X16646Y-40537
X16646Y-41537
X16646Y-42537
X16646Y-43537
X16646Y-44537
X16646Y-45537
X16646Y-46537
X16646Y-47537
X16646Y-48537
X16646Y-71427
X16662Y-70230
X17049Y-52427
X17646Y-71427
X17662Y-70230
X18049Y-52427
X18646Y-71427
X18662Y-70230
X18910Y-75442
X19049Y-52427
X19646Y-71427
X19662Y-70230
X19910Y-75442
X20646Y-71427
X20662Y-70230
X21469Y-75442
X21646Y-71427
X21662Y-70230
X22469Y-75442
X22646Y-34537
X22646Y-35537
X22646Y-36537
X22646Y-37537
X22646Y-38537
X22646Y-39537
X22646Y-40537
X22646Y-41537
X22646Y-42537
X22646Y-43537
X22646Y-44537
X22646Y-45537
X22646Y-46537
X22646Y-47537
X22646Y-48537
X22646Y-71427
X22662Y-70230
T4
X-6122Y-37175
X-6122Y-38750
X-6122Y-40324
X-6122Y-42883
X-6122Y-44458
X-6122Y-46033
X-6122Y-47608
T2
G00X9224Y-34163
M15
G01X9224Y-33927
M16
G05
G00X9224Y-35907
M15
G01X9224Y-35474
M16
G05
G00X12626Y-34163
M15
G01X12626Y-33927
M16
G05
G00X12626Y-35907
M15
G01X12626Y-35474
M16
G05
T3
G00X-315Y-34657
M15
G01X-315Y-34952
M16
G05
G00X3701Y-34657
M15
G01X3701Y-34952
M16
G05
T0
M30
