%TF.GenerationSoftware,KiCad,Pcbnew,(5.1.10)-1*%
%TF.CreationDate,2022-01-12T10:37:10-08:00*%
%TF.ProjectId,gbaHD-AIO-Shield,67626148-442d-4414-994f-2d536869656c,rev?*%
%TF.SameCoordinates,Original*%
%TF.FileFunction,Soldermask,Bot*%
%TF.FilePolarity,Negative*%
%FSLAX46Y46*%
G04 Gerber Fmt 4.6, Leading zero omitted, Abs format (unit mm)*
G04 Created by KiCad (PCBNEW (5.1.10)-1) date 2022-01-12 10:37:10*
%MOMM*%
%LPD*%
G01*
G04 APERTURE LIST*
%ADD10C,3.000000*%
%ADD11C,3.200000*%
%ADD12R,1.800000X1.800000*%
%ADD13C,1.800000*%
%ADD14O,1.700000X1.700000*%
%ADD15R,1.700000X1.700000*%
%ADD16C,1.600000*%
%ADD17O,4.400000X1.500000*%
%ADD18C,0.100000*%
%ADD19C,1.500000*%
%ADD20C,0.650000*%
%ADD21O,1.000000X1.600000*%
%ADD22O,1.000000X2.100000*%
G04 APERTURE END LIST*
D10*
%TO.C,P3*%
X-15550000Y-94423810D03*
X-15550000Y-98423810D03*
X-15550000Y-102423810D03*
X-15550000Y-108923810D03*
X-15550000Y-112923810D03*
X-15550000Y-116923810D03*
X-15550000Y-120923810D03*
%TD*%
D11*
%TO.C,REF\u002A\u002A*%
X-8275000Y-88298810D03*
%TD*%
%TO.C,REF\u002A\u002A*%
X-8275000Y-194298810D03*
%TD*%
D12*
%TO.C,A1*%
X57521000Y-123283810D03*
D13*
X42281000Y-90263810D03*
X57521000Y-120743810D03*
X42281000Y-92803810D03*
X57521000Y-118203810D03*
X42281000Y-95343810D03*
X57521000Y-115663810D03*
X42281000Y-97883810D03*
X57521000Y-113123810D03*
X42281000Y-100423810D03*
X57521000Y-110583810D03*
X42281000Y-102963810D03*
X57521000Y-108043810D03*
X42281000Y-105503810D03*
X57521000Y-105503810D03*
X42281000Y-108043810D03*
X57521000Y-102963810D03*
X42281000Y-110583810D03*
X57521000Y-100423810D03*
X42281000Y-113123810D03*
X57521000Y-97883810D03*
X42281000Y-115663810D03*
X57521000Y-95343810D03*
X42281000Y-118203810D03*
X57521000Y-92803810D03*
X42281000Y-120743810D03*
X57521000Y-90263810D03*
X42281000Y-123283810D03*
X57521000Y-87723810D03*
X42281000Y-87723810D03*
%TD*%
D14*
%TO.C,J2*%
X35360000Y-102958810D03*
X37900000Y-102958810D03*
X35360000Y-105498810D03*
X37900000Y-105498810D03*
X35360000Y-108038810D03*
D15*
X37900000Y-108043810D03*
%TD*%
D13*
%TO.C,S1*%
X38225000Y-133163810D03*
X48385000Y-133163810D03*
X40765000Y-133163810D03*
D12*
X30605000Y-133163810D03*
D13*
X33145000Y-133163810D03*
X43305000Y-133163810D03*
X35685000Y-133163810D03*
X45845000Y-133163810D03*
D14*
X22985000Y-133163810D03*
X17905000Y-133163810D03*
X12825000Y-133163810D03*
D15*
X25525000Y-133163810D03*
D14*
X15365000Y-133163810D03*
X20445000Y-133163810D03*
X52441000Y-181423810D03*
D15*
X34661000Y-181423810D03*
D14*
X44821000Y-181423810D03*
X49901000Y-181423810D03*
X47361000Y-181423810D03*
X42281000Y-181423810D03*
X39741000Y-181423810D03*
X37201000Y-181423810D03*
X57521000Y-181423810D03*
X54981000Y-181423810D03*
D13*
X22985000Y-181423810D03*
X30605000Y-181423810D03*
X17905000Y-181423810D03*
X25525000Y-181423810D03*
D12*
X12825000Y-181423810D03*
D13*
X28065000Y-181423810D03*
X20445000Y-181423810D03*
X15365000Y-181423810D03*
D14*
X55021000Y-178383810D03*
X39781000Y-178383810D03*
X49941000Y-178383810D03*
X57561000Y-178383810D03*
X37241000Y-178383810D03*
X42321000Y-178383810D03*
X47401000Y-178383810D03*
X44861000Y-178383810D03*
D15*
X34701000Y-178383810D03*
D14*
X52481000Y-178383810D03*
%TD*%
D13*
%TO.C,TP1*%
X50571000Y-191623810D03*
D12*
X48031000Y-191623810D03*
%TD*%
D13*
%TO.C,SW2*%
X57071000Y-191623810D03*
D12*
X54531000Y-191623810D03*
%TD*%
D16*
%TO.C,P2*%
X6250000Y-134048810D03*
D17*
X7850000Y-195635731D03*
X7850000Y-125935731D03*
D16*
X9250000Y-135548810D03*
X7750000Y-137048810D03*
X9250000Y-138548810D03*
X7750000Y-140048810D03*
X9250000Y-141548810D03*
X7750000Y-143048810D03*
X9250000Y-144548810D03*
X7750000Y-146048810D03*
X9250000Y-147548810D03*
X7750000Y-149048810D03*
X9250000Y-150548810D03*
X7750000Y-152048810D03*
X9250000Y-153548810D03*
X7750000Y-155048810D03*
X9250000Y-156548810D03*
X7750000Y-158048810D03*
X9250000Y-159548810D03*
X7750000Y-161048810D03*
X9250000Y-162548810D03*
X7750000Y-164048810D03*
X9250000Y-165548810D03*
X7750000Y-167048810D03*
X9250000Y-168548810D03*
X7750000Y-170048810D03*
X9250000Y-171548810D03*
X7750000Y-173048810D03*
X9250000Y-174548810D03*
X7750000Y-176048810D03*
X9250000Y-177548810D03*
X7750000Y-179048810D03*
X9250000Y-180548810D03*
X8650000Y-182398810D03*
X8650000Y-184398810D03*
X8650000Y-186398810D03*
X8650000Y-188398810D03*
%TD*%
D18*
%TO.C,P1*%
G36*
X10400000Y-89528810D02*
G01*
X8400000Y-89528810D01*
X8400000Y-87278810D01*
X10400000Y-87278810D01*
X10400000Y-89528810D01*
G37*
G36*
X200000Y-89528810D02*
G01*
X-1800000Y-89528810D01*
X-1800000Y-87278810D01*
X200000Y-87278810D01*
X200000Y-89528810D01*
G37*
D19*
X6300000Y-88778810D03*
X6300000Y-90778810D03*
X4300000Y-88778810D03*
X4300000Y-90778810D03*
X2300000Y-88778810D03*
X2300000Y-90778810D03*
%TD*%
D20*
%TO.C,J1*%
X30640000Y-90153810D03*
X24860000Y-90153810D03*
D21*
X23430000Y-86473810D03*
X32070000Y-86473810D03*
D22*
X23430000Y-90653810D03*
X32070000Y-90653810D03*
%TD*%
M02*
